<svg preserveAspectRatio="xMidYMid meet" data-bbox="25.999 20 148.001 160" viewBox="25.999 20 148.001 160" height="200" width="200" xmlns="http://www.w3.org/2000/svg" data-type="color" role="presentation" aria-hidden="true">
  <g>
    <path d="M113.736 107.853H86.264l-.542-.553C49.86 70.649 56.261 22.063 56.33 21.577L56.553 20h86.891l.223 1.576c.069.487 6.476 49.073-29.389 85.724l-.542.553zm-25.916-3.664h24.36c30.474-31.63 28.748-72.096 28.011-80.524H59.809c-.73 8.435-2.421 48.935 28.011 80.524z" fill="rgb(226, 43, 35)"></path>
    <path d="M145.545 180h-91.09v-1.832c0-11.513 9.402-20.879 20.959-20.879h49.169c11.558 0 20.962 9.366 20.962 20.879V180zm-87.314-3.664h83.537c-.921-8.634-8.277-15.383-17.185-15.383H75.414c-8.908 0-16.262 6.749-17.183 15.383z" fill="rgb(226, 43, 35)"></path>
    <path d="M128.072 160.953H71.928l-.152-1.666c-.024-.271-.562-6.713 3.365-12.701 1.275-1.945 2.838-3.517 4.646-4.671l.522-.332c3.956-2.514 9.932-6.311 9.932-12.639 0-8.736-4.286-12.613-4.469-12.774l-.657-.579.027-.882.458-10.521h28.801l.494 11.41-.678.58c-.172.152-4.457 4.029-4.457 12.766 0 6.327 5.975 10.125 9.929 12.638l.523.334c1.808 1.156 3.371 2.727 4.647 4.671 3.927 5.987 3.39 12.429 3.365 12.701l-.152 1.665zm-52.624-3.665h49.103c-.118-1.992-.651-5.463-2.773-8.698-.989-1.508-2.184-2.715-3.552-3.59l-.516-.329c-4.35-2.764-11.629-7.391-11.629-15.727 0-8.437 3.543-13.213 5.065-14.876l-.269-6.216H89.123l-.272 6.216c1.523 1.663 5.067 6.439 5.067 14.876 0 8.337-7.281 12.964-11.632 15.729l-.514.327c-1.368.873-2.562 2.081-3.551 3.589-2.122 3.235-2.655 6.705-2.773 8.699z" fill="rgb(226, 43, 35)"></path>
    <path d="M131.993 80.715a1.835 1.835 0 0 1-1.839-1.832c0-1.012.823-1.832 1.839-1.832 28.653 0 36.331-24.967 38.302-35.703a1.505 1.505 0 0 0-.33-1.258 1.51 1.51 0 0 0-1.174-.547h-26.486a1.835 1.835 0 0 1-1.839-1.832c0-1.012.823-1.832 1.839-1.832h26.486c1.55 0 3.007.68 3.999 1.864a5.169 5.169 0 0 1 1.124 4.265c-1.667 9.079-9.617 38.707-41.921 38.707z" fill="rgb(226, 43, 35)"></path>
    <path d="M68.005 80.715c-32.306 0-40.253-29.627-41.919-38.708a5.169 5.169 0 0 1 1.122-4.264 5.2 5.2 0 0 1 4-1.864h26.485c1.016 0 1.839.82 1.839 1.832a1.835 1.835 0 0 1-1.839 1.832H31.209c-.624 0-1.003.342-1.174.546a1.506 1.506 0 0 0-.33 1.259c1.97 10.735 9.645 35.703 38.301 35.703 1.016 0 1.839.82 1.839 1.832a1.837 1.837 0 0 1-1.84 1.832z" fill="rgb(226, 43, 35)"></path>
  </g>
</svg>
